<svg width="32" height="32" viewBox="0 0 32 32" fill="none" xmlns="http://www.w3.org/2000/svg">
<path d="M8.3194 29.6874H24.0828C26.4931 29.6874 27.8863 28.2948 27.8863 25.5354V11.6743C27.8863 8.91542 26.48 7.52228 23.6805 7.52228H21.5514C21.4714 4.7097 19.0337 2.31256 16.0068 2.31256C12.9668 2.31256 10.5291 4.7097 10.4485 7.52228H8.31997C5.53426 7.52228 4.11426 8.9017 4.11426 11.6743V25.536C4.11426 28.308 5.53426 29.6874 8.31997 29.6874M16.0068 4.34856C17.8948 4.34856 19.328 5.76856 19.3954 7.52285H12.6183C12.672 5.76856 14.1051 4.34856 16.0068 4.34856Z" fill="#4A362F"/>
</svg>
