<svg width="147" height="39" viewBox="0 0 147 39" fill="none" xmlns="http://www.w3.org/2000/svg">
<path d="M34.1833 13.5869C34.5802 13.5869 34.7125 13.7302 34.7125 14.1161V22.8479H39.1997C39.5856 22.8479 39.7289 22.9912 39.7289 23.3771V24.1488C39.7289 24.5347 39.5856 24.678 39.1997 24.678H33.2903C32.9044 24.678 32.7501 24.5347 32.7501 24.1488V14.1161C32.7501 13.7302 32.9044 13.5869 33.2903 13.5869H34.1833Z" fill="#4A362F"/>
<path d="M43.6427 17.4346C43.6427 14.8878 45.2524 13.3553 48.0527 13.3553C50.8531 13.3553 52.4627 14.8878 52.4627 17.4346V20.8303C52.4627 23.3771 50.8421 24.9095 48.0527 24.9095C45.2634 24.9095 43.6427 23.3771 43.6427 20.8303V17.4346ZM50.6105 17.4346C50.6105 16.0013 49.7175 15.2296 48.1079 15.2296C46.4982 15.2296 45.6162 16.0124 45.6162 17.4346V20.8523C45.6162 22.2966 46.4982 23.0573 48.1079 23.0573C49.7175 23.0573 50.6105 22.2635 50.6105 20.8523V17.4346Z" fill="#4A362F"/>
<path d="M65.5935 18.6032C66.0235 18.6032 66.1227 18.7466 66.1227 19.1324V21.2272C66.1344 21.7206 66.0355 22.2104 65.8333 22.6606C65.631 23.1108 65.3307 23.51 64.9541 23.8291C64.0188 24.5738 62.8396 24.9433 61.6466 24.8654C58.7911 24.8654 57.2366 23.333 57.2366 20.7862V17.3684C57.2366 14.8547 58.8462 13.3112 61.6466 13.3112C63.8516 13.3112 65.2848 14.1822 65.8912 15.9242C65.9252 15.9897 65.9433 16.0621 65.9443 16.1357C65.9453 16.2095 65.9291 16.2825 65.897 16.3487C65.865 16.4151 65.8178 16.4731 65.7593 16.5181C65.7009 16.563 65.6328 16.5937 65.5604 16.6077L64.7005 16.9054C64.3256 17.0377 64.1713 16.9605 64.039 16.5746C63.8563 16.1038 63.5219 15.7071 63.0886 15.4476C62.6554 15.188 62.148 15.0802 61.6466 15.1414C60.0259 15.1414 59.1439 15.9242 59.1439 17.3464V20.8523C59.1439 22.2966 60.0369 23.0573 61.6466 23.0573C63.2562 23.0573 64.2485 22.3187 64.2485 21.2382V20.4224H61.856C61.4591 20.4224 61.3158 20.268 61.3158 19.8821V19.1324C61.3158 18.7466 61.4591 18.6032 61.856 18.6032H65.5935Z" fill="#4A362F"/>
<path d="M70.6761 17.4346C70.6761 14.8878 72.2857 13.3553 75.0861 13.3553C77.8864 13.3553 79.4961 14.8878 79.4961 17.4346V20.8303C79.4961 23.3771 77.8754 24.9095 75.0861 24.9095C72.2967 24.9095 70.6761 23.3771 70.6761 20.8303V17.4346ZM77.6328 17.4346C77.6328 16.0013 76.7398 15.2296 75.1412 15.2296C73.5426 15.2296 72.6385 16.0124 72.6385 17.4346V20.8523C72.6385 22.2966 73.5315 23.0573 75.1412 23.0573C76.7508 23.0573 77.6328 22.2635 77.6328 20.8523V17.4346Z" fill="#4A362F"/>
<path d="M84.6888 13.9066C84.6888 13.6641 84.766 13.5869 85.0086 13.5869H85.5157C85.7583 13.5869 85.8134 13.6641 85.8134 13.9066V24.3583C85.8134 24.6009 85.8134 24.678 85.5157 24.678H85.0086C84.766 24.678 84.6888 24.6009 84.6888 24.3583V13.9066Z" fill="#4A362F"/>
<path d="M95.8572 13.5869C96.7753 13.5869 97.6558 13.9516 98.305 14.6009C98.9543 15.25 99.319 16.1306 99.319 17.0487C99.319 17.9669 98.9543 18.8475 98.305 19.4966C97.6558 20.1459 96.7753 20.5106 95.8572 20.5106H92.5497V24.3583C92.5497 24.6009 92.4945 24.678 92.263 24.678H91.7448C91.5133 24.678 91.4251 24.6009 91.4251 24.3583V13.9066C91.4251 13.6641 91.5133 13.5869 91.7448 13.5869H95.8572ZM95.7579 19.4191C96.0736 19.4191 96.3861 19.3569 96.6777 19.2362C96.9692 19.1154 97.2343 18.9383 97.4574 18.7152C97.6806 18.492 97.8576 18.227 97.9785 17.9355C98.0992 17.6439 98.1614 17.3313 98.1614 17.0157C98.1614 16.7 98.0992 16.3875 97.9785 16.0958C97.8576 15.8043 97.6806 15.5393 97.4574 15.3162C97.2343 15.093 96.9692 14.9159 96.6777 14.7951C96.3861 14.6744 96.0736 14.6122 95.7579 14.6122H92.4504V19.4191H95.7579Z" fill="#4A362F"/>
<path d="M107.93 13.3664C108.781 13.2724 109.64 13.4556 110.378 13.8885C111.117 14.3216 111.697 14.9813 112.031 15.7698C112.119 15.9462 112.031 16.0895 111.854 16.1777L111.369 16.3982C111.171 16.4754 111.094 16.4644 110.972 16.2549C110.723 15.6697 110.293 15.1791 109.746 14.8541C109.199 14.5291 108.563 14.3864 107.93 14.4468C106.066 14.4468 105.052 15.1855 105.052 16.5085C105.041 16.9128 105.177 17.3075 105.434 17.6195C105.692 17.9315 106.053 18.14 106.452 18.2063C107.045 18.3997 107.66 18.5182 108.282 18.5591C109.036 18.5993 109.779 18.7516 110.487 19.0112C111.031 19.183 111.498 19.5365 111.811 20.0123C112.125 20.4882 112.265 21.0573 112.207 21.6241C112.207 23.6858 110.708 24.9316 107.952 24.9316C107.048 25.035 106.135 24.8255 105.367 24.338C104.599 23.8506 104.021 23.1145 103.729 22.2525C103.709 22.2133 103.699 22.1702 103.698 22.1263C103.697 22.0824 103.706 22.039 103.724 21.9989C103.742 21.9589 103.768 21.9233 103.802 21.8948C103.835 21.8661 103.874 21.8453 103.916 21.8336L104.402 21.6572C104.44 21.6415 104.481 21.634 104.522 21.6351C104.563 21.6362 104.604 21.6459 104.641 21.6636C104.678 21.6812 104.712 21.7063 104.739 21.7375C104.766 21.7687 104.786 21.8051 104.798 21.8446C105.045 22.4674 105.484 22.9955 106.051 23.3524C106.617 23.7091 107.283 23.8762 107.952 23.8291C110.035 23.8291 111.061 23.1014 111.061 21.6241C111.08 21.2358 110.961 20.8531 110.725 20.5442C110.489 20.2354 110.151 20.0203 109.771 19.9373C109.2 19.7671 108.612 19.6635 108.018 19.6286L106.827 19.4742C106.454 19.3952 106.086 19.2957 105.725 19.1765C105.367 19.0686 105.034 18.8926 104.743 18.6584C104.451 18.3935 104.22 18.0676 104.068 17.7037C103.915 17.3398 103.845 16.9468 103.861 16.5526C103.938 14.6232 105.383 13.3664 107.93 13.3664Z" fill="#4A362F"/>
<path d="M118.15 20.9075C118.196 21.6872 118.539 22.4196 119.108 22.955C119.677 23.4905 120.429 23.7886 121.209 23.7886C121.99 23.7886 122.742 23.4905 123.311 22.955C123.879 22.4196 124.221 21.6872 124.269 20.9075V13.9066C124.269 13.6641 124.346 13.5869 124.588 13.5869H125.095C125.338 13.5869 125.415 13.6641 125.415 13.9066V20.8965C125.415 23.3991 123.938 24.9096 121.215 24.9096C118.491 24.9096 117.014 23.3991 117.014 20.8965V13.9066C117.014 13.6641 117.091 13.5869 117.323 13.5869H117.841C118.073 13.5869 118.15 13.6641 118.15 13.9066V20.9075Z" fill="#4A362F"/>
<path d="M140.63 13.5869C140.872 13.5869 140.949 13.664 140.949 13.9066V24.3583C140.949 24.6008 140.872 24.678 140.63 24.678H140.167C139.935 24.678 139.858 24.6008 139.858 24.3583V17.9969C139.858 17.0713 139.921 16.1468 140.045 15.2296H139.979C139.635 16.0683 139.233 16.8824 138.777 17.6661L136.407 21.8446C136.378 21.9171 136.328 21.9791 136.263 22.0224C136.198 22.0656 136.122 22.0882 136.043 22.0871H135.735C135.655 22.0876 135.578 22.0648 135.511 22.0218C135.445 21.9787 135.392 21.9171 135.36 21.8446L132.956 17.622C132.53 16.8495 132.161 16.0461 131.854 15.2186H131.788C131.9 16.1441 131.96 17.0755 131.964 18.0079V24.3583C131.964 24.6008 131.887 24.678 131.644 24.678H131.214C130.972 24.678 130.895 24.6008 130.895 24.3583V13.9066C130.895 13.664 130.972 13.5869 131.214 13.5869H131.611C131.702 13.5785 131.793 13.5982 131.871 13.6437C131.951 13.6891 132.014 13.7579 132.052 13.8404L135.911 20.698L139.748 13.9066C139.869 13.6751 139.935 13.642 140.178 13.642L140.63 13.5869Z" fill="#4A362F"/>
<path d="M14.5698 23.0022V30.9733C14.5698 31.2789 14.4484 31.572 14.2324 31.7879C14.0164 32.004 13.7233 32.1254 13.4177 32.1254C13.1122 32.1254 12.8192 32.004 12.6031 31.7879C12.387 31.572 12.2656 31.2789 12.2656 30.9733V23.0133C12.5864 23.2475 12.971 23.3783 13.3681 23.3881C13.8009 23.4005 14.2251 23.2643 14.5698 23.0022ZM24.3821 20.698C24.0897 20.698 23.8092 20.8142 23.6025 21.0209C23.3958 21.2277 23.2796 21.5081 23.2796 21.8005V23.1897C23.2796 23.4953 23.401 23.7883 23.6171 24.0043C23.833 24.2204 24.1261 24.3418 24.4317 24.3418C24.7373 24.3418 25.0304 24.2204 25.2463 24.0043C25.4624 23.7883 25.5838 23.4953 25.5838 23.1897V21.8556C25.5924 21.6975 25.5668 21.5394 25.5088 21.3921C25.4508 21.2449 25.3619 21.1117 25.2478 21.0019C25.1338 20.8921 24.9974 20.808 24.8481 20.7556C24.6987 20.7032 24.5397 20.6836 24.3821 20.698ZM9.76293 26.0231C9.36622 26.0112 8.98217 25.8806 8.66043 25.6482V33.6414C8.66043 33.9484 8.78239 34.2429 8.9995 34.46C9.21659 34.6771 9.51103 34.799 9.81806 34.799C10.1251 34.799 10.4195 34.6771 10.6366 34.46C10.8537 34.2429 10.9757 33.9484 10.9757 33.6414V25.7034C10.6157 25.9361 10.1909 26.0481 9.76293 26.0231ZM20.7879 18.3056C20.6385 18.2981 20.4893 18.3211 20.349 18.3732C20.2089 18.4252 20.0808 18.5052 19.9724 18.6083C19.8641 18.7115 19.778 18.8356 19.7192 18.973C19.6604 19.1105 19.6301 19.2586 19.6303 19.4081V25.549C19.6303 25.8561 19.7522 26.1505 19.9693 26.3676C20.1865 26.5847 20.4809 26.7066 20.7879 26.7066C21.095 26.7066 21.3895 26.5847 21.6065 26.3676C21.8236 26.1505 21.9456 25.8561 21.9456 25.549V19.4853C21.9544 19.3262 21.9286 19.1671 21.8699 19.0189C21.8113 18.8707 21.7213 18.737 21.606 18.627C21.4907 18.5169 21.353 18.4331 21.2023 18.3815C21.0515 18.3298 20.8913 18.3114 20.7328 18.3276L20.7879 18.3056ZM17.1276 20.6649C16.7123 20.6621 16.3081 20.5312 15.97 20.2901V28.3053C15.97 28.6123 16.0919 28.9068 16.309 29.1239C16.5262 29.341 16.8206 29.4629 17.1276 29.4629C17.4347 29.4629 17.729 29.341 17.9462 29.1239C18.1633 28.9068 18.2853 28.6123 18.2853 28.3053V20.3011C17.9355 20.5616 17.5085 20.6975 17.0725 20.687L17.1276 20.6649ZM7.26026 26.8059V4.41409C7.25736 4.14114 7.14689 3.88038 6.95285 3.6884C6.75881 3.49642 6.49686 3.38875 6.22391 3.38876H5.98136C5.7084 3.38875 5.44646 3.49642 5.25242 3.6884C5.05838 3.88038 4.94791 4.14114 4.94501 4.41409V26.8059C4.94501 27.0807 5.0542 27.3443 5.24855 27.5387C5.4429 27.7331 5.7065 27.8422 5.98136 27.8422H6.22391C6.49877 27.8422 6.76237 27.7331 6.95672 27.5387C7.15108 27.3443 7.26026 27.0807 7.26026 26.8059ZM9.88421 25.1742H9.64166C9.3668 25.1742 9.1032 25.065 8.90885 24.8706C8.7145 24.6763 8.60531 24.4127 8.60531 24.1378V7.08214C8.60822 6.8092 8.71868 6.54842 8.91272 6.35645C9.10676 6.16447 9.3687 6.0568 9.64166 6.05681H9.88421C10.1572 6.0568 10.4191 6.16447 10.6131 6.35645C10.8072 6.54842 10.9177 6.8092 10.9206 7.08214V24.1599C10.9206 24.4347 10.8114 24.6983 10.617 24.8927C10.4227 25.0871 10.1591 25.1962 9.88421 25.1962V25.1742ZM13.5335 22.5502H13.2799C13.008 22.5502 12.7472 22.4422 12.5549 22.2499C12.3626 22.0576 12.2546 21.7969 12.2546 21.5249V9.72814C12.2531 9.59256 12.2786 9.45805 12.3294 9.33237C12.3803 9.2067 12.4556 9.09237 12.5509 8.99599C12.6463 8.89961 12.7599 8.8231 12.885 8.77088C13.0101 8.71867 13.1443 8.69178 13.2799 8.69179H13.5335C13.8065 8.6947 14.0672 8.80516 14.2591 8.9992C14.4512 9.19324 14.5588 9.45518 14.5588 9.72814V21.5249C14.5588 21.7969 14.4508 22.0576 14.2585 22.2499C14.0662 22.4422 13.8055 22.5502 13.5335 22.5502ZM17.1828 19.8491H16.9512C16.6783 19.8491 16.4163 19.7415 16.2223 19.5494C16.0282 19.3575 15.9177 19.0967 15.9149 18.8238V12.4734C15.9058 12.3318 15.9259 12.1899 15.974 12.0564C16.0219 11.923 16.0969 11.8007 16.194 11.6974C16.2912 11.594 16.4085 11.5118 16.5388 11.4555C16.669 11.3994 16.8093 11.3705 16.9512 11.3709H17.1938C17.4686 11.3709 17.7322 11.48 17.9266 11.6744C18.121 11.8688 18.2301 12.1324 18.2301 12.4072V18.8017C18.2316 18.9388 18.2059 19.0747 18.1544 19.2017C18.103 19.3287 18.0269 19.4442 17.9305 19.5417C17.8341 19.6391 17.7195 19.7163 17.5929 19.7692C17.4664 19.822 17.3308 19.8491 17.1938 19.8491H17.1828ZM20.8431 17.4787H20.6005C20.3257 17.4787 20.062 17.3696 19.8677 17.1752C19.6733 16.9808 19.5642 16.7172 19.5642 16.4424V14.7996C19.567 14.5267 19.6775 14.2659 19.8715 14.074C20.0656 13.8819 20.3275 13.7743 20.6005 13.7743H20.8431C21.116 13.7743 21.378 13.8819 21.572 14.074C21.7661 14.2659 21.8765 14.5267 21.8794 14.7996V16.4424C21.8794 16.7153 21.7718 16.9773 21.5797 17.1713C21.3878 17.3654 21.1271 17.4758 20.8541 17.4787H20.8431Z" fill="#4A362F"/>
</svg>
